<svg xmlns="http://www.w3.org/2000/svg" width="16" height="16"  viewBox="0 0 16 16"><g transform="matrix(1 0 0 1 0 0)"  ><g style=""   ><g transform="matrix(0.67 0 0 0.67 7.33 2)"  ><path style="stroke: none; stroke-width: 1; stroke-dasharray: none; stroke-linecap: butt; stroke-dashoffset: 0; stroke-linejoin: miter; stroke-miterlimit: 4; fill: rgb(143,150,163); fill-rule: nonzero; opacity: 1;"  transform=" translate(-11, -3)" d="M 10 4 L 10 2 C 10 1.44772 10.4477 1 11 1 C 11.5523 1 12 1.44772 12 2 L 12 4 C 12 4.55228 11.5523 5 11 5 C 10.4477 5 10 4.55228 10 4 Z" stroke-linecap="round" /></g><g transform="matrix(0.67 0 0 0.67 3.33 2)"  ><path style="stroke: none; stroke-width: 1; stroke-dasharray: none; stroke-linecap: butt; stroke-dashoffset: 0; stroke-linejoin: miter; stroke-miterlimit: 4; fill: rgb(143,150,163); fill-rule: nonzero; opacity: 1;"  transform=" translate(-5, -3)" d="M 4 4 L 4 2 C 4 1.44772 4.44772 1 5 1 C 5.55228 1 6 1.44772 6 2 L 6 4 C 6 4.55228 5.55228 5 5 5 C 4.44772 5 4 4.55228 4 4 Z" stroke-linecap="round" /></g><g transform="matrix(0.67 0 0 0.67 5.33 6)"  ><path style="stroke: none; stroke-width: 1; stroke-dasharray: none; stroke-linecap: butt; stroke-dashoffset: 0; stroke-linejoin: miter; stroke-miterlimit: 4; fill: rgb(143,150,163); fill-rule: nonzero; opacity: 1;"  transform=" translate(-8, -9)" d="M 1 9 L 1 5 C 1 4.20435 1.3163 3.44152 1.87891 2.87891 C 2.44152 2.3163 3.20435 2 4 2 L 5 2 C 5.55228 2 6 2.44772 6 3 C 6 3.55228 5.55228 4 5 4 L 4 4 C 3.73478 4 3.48051 4.10543 3.29297 4.29297 C 3.10543 4.48051 3 4.73478 3 5 L 3 9 L 3.00586 9.24805 C 3.06719 10.4838 3.58579 11.6561 4.46484 12.5352 C 5.40253 13.4728 6.67392 14 8 14 C 9.32608 14 10.5975 13.4728 11.5352 12.5352 C 12.4142 11.6561 12.9328 10.4838 12.9941 9.24805 L 13 9 L 13 5 C 13 4.73478 12.8946 4.48051 12.707 4.29297 C 12.5195 4.10543 12.2652 4 12 4 L 11 4 C 10.4477 4 10 3.55228 10 3 C 10 2.44772 10.4477 2 11 2 L 12 2 C 12.7956 2 13.5585 2.3163 14.1211 2.87891 C 14.6837 3.44152 15 4.20435 15 5 L 15 9 L 14.9912 9.34668 C 14.9055 11.077 14.181 12.7194 12.9502 13.9502 C 11.6374 15.2629 9.85652 16 8 16 C 6.14348 16 4.36256 15.2629 3.0498 13.9502 C 1.819 12.7194 1.09452 11.077 1.00879 9.34668 L 1 9 Z" stroke-linecap="round" /></g><g transform="matrix(0.67 0 0 0.67 9.33 11)"  ><path style="stroke: none; stroke-width: 1; stroke-dasharray: none; stroke-linecap: butt; stroke-dashoffset: 0; stroke-linejoin: miter; stroke-miterlimit: 4; fill: rgb(143,150,163); fill-rule: nonzero; opacity: 1;"  transform=" translate(-14, -16.5)" d="M 7 15 C 7 14.4477 7.44772 14 8 14 C 8.55228 14 9 14.4477 9 15 C 9 16.3261 9.52716 17.5975 10.4648 18.5352 C 11.4025 19.4728 12.6739 20 14 20 C 15.3261 20 16.5975 19.4728 17.5352 18.5352 C 18.4142 17.6561 18.9328 16.4838 18.9941 15.248 L 19 15 L 19 12 C 19 11.4477 19.4477 11 20 11 C 20.5523 11 21 11.4477 21 12 L 21 15 L 20.9912 15.3467 C 20.9055 17.077 20.181 18.7194 18.9502 19.9502 C 17.6374 21.263 15.8565 22 14 22 C 12.1435 22 10.3626 21.263 9.0498 19.9502 C 7.73705 18.6374 7 16.8565 7 15 Z" stroke-linecap="round" /></g><g transform="matrix(0.67 0 0 0.67 13.33 6.67)"  ><path style="stroke: none; stroke-width: 1; stroke-dasharray: none; stroke-linecap: butt; stroke-dashoffset: 0; stroke-linejoin: miter; stroke-miterlimit: 4; fill: rgb(143,150,163); fill-rule: nonzero; opacity: 1;"  transform=" translate(-20, -10)" d="M 21 10 C 21 9.44772 20.5523 9 20 9 C 19.4477 9 19 9.44772 19 10 C 19 10.5523 19.4477 11 20 11 C 20.5523 11 21 10.5523 21 10 Z M 23 10 C 23 11.6569 21.6569 13 20 13 C 18.3431 13 17 11.6569 17 10 C 17 8.34315 18.3431 7 20 7 C 21.6569 7 23 8.34315 23 10 Z" stroke-linecap="round" /></g></g></g></svg>