<svg xmlns="http://www.w3.org/2000/svg" width="32" height="32"  viewBox="0 0 32 32"><g transform="matrix(1 0 0 1 0 0)"  ><g style=""   ><g transform="matrix(1.33 0 0 1.33 16 16)"  ><path style="stroke: none; stroke-width: 1; stroke-dasharray: none; stroke-linecap: butt; stroke-dashoffset: 0; stroke-linejoin: miter; stroke-miterlimit: 4; fill: rgb(255,255,255); fill-rule: nonzero; opacity: 1;"  transform=" translate(-12, -12)" d="M 3 20 L 3 4 C 3 3.20435 3.3163 2.44152 3.87891 1.87891 C 4.44152 1.3163 5.20435 1 6 1 L 15 1 L 15.0986 1.00488 C 15.3276 1.02757 15.5429 1.12883 15.707 1.29297 L 20.707 6.29297 C 20.8946 6.48051 21 6.73478 21 7 L 21 20 C 21 20.7957 20.6837 21.5585 20.1211 22.1211 C 19.5585 22.6837 18.7957 23 18 23 L 6 23 C 5.20435 23 4.44152 22.6837 3.87891 22.1211 C 3.3163 21.5585 3 20.7956 3 20 Z M 5 20 C 5 20.2652 5.10543 20.5195 5.29297 20.707 C 5.48051 20.8946 5.73478 21 6 21 L 18 21 C 18.2652 21 18.5195 20.8946 18.707 20.707 C 18.8946 20.5195 19 20.2652 19 20 L 19 7.41406 L 14.5859 3 L 6 3 C 5.73478 3 5.48051 3.10543 5.29297 3.29297 C 5.10543 3.48051 5 3.73478 5 4 L 5 20 Z" stroke-linecap="round" /></g><g transform="matrix(1.33 0 0 1.33 22.67 6.67)"  ><path style="stroke: none; stroke-width: 1; stroke-dasharray: none; stroke-linecap: butt; stroke-dashoffset: 0; stroke-linejoin: miter; stroke-miterlimit: 4; fill: rgb(255,255,255); fill-rule: nonzero; opacity: 1;"  transform=" translate(-17, -5)" d="M 13 6 L 13 2 C 13 1.44772 13.4477 1 14 1 C 14.5523 1 15 1.44772 15 2 L 15 6 C 15 6.26522 15.1054 6.51949 15.293 6.70703 C 15.4805 6.89457 15.7348 7 16 7 L 20 7 C 20.5523 7 21 7.44772 21 8 C 21 8.55228 20.5523 9 20 9 L 16 9 C 15.2044 9 14.4415 8.6837 13.8789 8.12109 C 13.3163 7.55848 13 6.79565 13 6 Z" stroke-linecap="round" /></g><g transform="matrix(1.33 0 0 1.33 16 20)"  ><path style="stroke: none; stroke-width: 1; stroke-dasharray: none; stroke-linecap: butt; stroke-dashoffset: 0; stroke-linejoin: miter; stroke-miterlimit: 4; fill: rgb(255,255,255); fill-rule: nonzero; opacity: 1;"  transform=" translate(-12, -15)" d="M 14.3692 12.2246 C 14.7619 11.9043 15.3409 11.9269 15.707 12.293 C 16.0732 12.6591 16.0958 13.2381 15.7754 13.6309 L 15.707 13.707 L 11.707 17.707 C 11.3409 18.0732 10.7619 18.0958 10.3692 17.7754 L 10.293 17.707 L 8.29298 15.707 L 8.22462 15.6309 C 7.90427 15.2381 7.92686 14.6591 8.29298 14.293 C 8.65909 13.9269 9.2381 13.9043 9.63087 14.2246 L 9.70704 14.293 L 11 15.5859 L 14.293 12.293 L 14.3692 12.2246 Z" stroke-linecap="round" /></g></g></g></svg>